<svg xmlns="http://www.w3.org/2000/svg" xmlns:xlink="http://www.w3.org/1999/xlink" width="55" height="33"><defs><path id="a" d="M721.46 5608.77a4 4 0 1 1-8.01 0c0-.49.1-.97.24-1.38.41.31.89.48 1.4.48 1.3 0 2.36-1.06 2.36-2.37 0-.28-.07-.52-.13-.76h.13a4 4 0 0 1 4 4.03zm26.03-4.37c0 4.5-3.63 8.15-8.1 8.15-.9 0-5.9.24-7.43.07a3.92 3.92 0 0 1-2.47-1.07c-1.23-1.24-1.06-3.13-1.67-4.64a11.88 11.88 0 0 0-22.85 4.54c0 .38.03.76.06 1.1h-2.53a9.57 9.57 0 0 1-9.03-9.56 9.54 9.54 0 0 1 9.51-9.57l.65.03a7.32 7.32 0 0 1 9.65-3.6 13.16 13.16 0 0 1 12.7-9.85 13.18 13.18 0 0 1 12.75 16.34c.24 0 .45-.03.69-.03a8.04 8.04 0 0 1 8.07 8.09z"/></defs><use fill="#ff4e4c" xlink:href="#a" transform="translate(-693 -5580)"/></svg>