<svg xmlns="http://www.w3.org/2000/svg" xmlns:xlink="http://www.w3.org/1999/xlink" width="200" height="28"><defs><path id="a" d="M193.23 5.67l-.65 3.05c-.06.22 0 .26.18.26h.43c.2 0 .26-.06.3-.26l.65-3.05h1.04c.1 0 .18 0 .2-.14l.06-.31c.04-.16 0-.2-.16-.2h-2.95c-.18 0-.22.04-.26.2l-.06.31c-.04.14.02.14.14.14zm3.8-.53c-.01-.08-.03-.14-.11-.14h-.85c-.08 0-.14.04-.16.14l-.74 3.56c-.06.22-.02.26.17.26h.2c.18 0 .26-.06.3-.26l.45-2.16.3 2.38c0 .06.03.08.1.08h.8c.1 0 .12-.02.16-.08l1.22-2.23-.43 2.01c-.06.22-.02.26.17.26h.36c.18 0 .23-.06.27-.26l.75-3.56c.02-.1 0-.14-.1-.14h-.65c-.1 0-.13.02-.17.12l-1.68 3.11z"/><path id="b" d="M137.02 4.03c-.66-1.12-2.3-1.56-4.08-1.56-2.47 0-4.33.85-4.83 3.15-1.21 6 10.17 2.43 8.46 10.68-.78 3.88-3.86 5.13-7.49 5.13-4.4 0-6.37-1.48-5.8-4.28.2-.95.94-1.55 1.82-1.55.85 0 1.3.46 1.12 1.43a1.83 1.83 0 0 1-1.36 1.37c.57 1.12 2.22 1.6 4.37 1.6 2.74 0 5.01-.98 5.6-3.88 1.37-6.54-10.06-2.76-8.43-10.62.66-3.11 3.01-4.44 6.48-4.44 4.54 0 6.37 1.7 5.73 4.36a1.8 1.8 0 0 1-1.8 1.43c-.78 0-1.27-.5-1.08-1.4.18-.74.7-1.24 1.3-1.42z"/><path id="c" d="M143.19 19.7c.5 0 .7-.08 1.03-.16.27-.06.41-.06.33.25l-.15.7c-.06.25-.14.36-.45.46-.5.15-.78.19-1.55.19-.94 0-2.12-.36-1.69-2.35l2.09-9.87c.1-.6 0-.83-.54-.85h-1.28c-.35-.02-.33-.17-.27-.46l.1-.51c.09-.38.15-.42.46-.44l3.24-.19c.5-.02.58.23.45.77l-2.37 11.3c-.17.8.04 1.17.6 1.17zM145.52.22c.74 0 1.22.6 1.03 1.47a1.92 1.92 0 0 1-1.86 1.52c-.74 0-1.2-.52-1-1.4.2-.95.98-1.59 1.83-1.59z"/><path id="d" d="M156.33 21.2l.58-2.64a6.66 6.66 0 0 1-5.36 2.82c-3.39 0-4.87-2.63-3.92-7.2.99-4.68 3.9-8.02 8.14-8.02 1.72 0 2.58.5 3.51 1.2l.02-.23c.14-.53.31-.76.83-.76l3.05.18c.33.02.41.1.35.42l-.17.7c-.06.25-.22.27-.51.34h-1.18c-.68.06-.78.33-.99 1.22l-2.5 11.84c-1 4.73-3.64 6.74-7.91 6.74-2.62 0-5.1-.87-4.54-3.7.16-.76.87-1.27 1.53-1.27s1.17.43 1 1.2c-.1.54-.51.95-.94 1.18.45.79 1.7 1.12 3.24 1.12 2.86.04 5-1.45 5.77-5.14zm1.55-7.28l1.03-4.96c-.66-.77-1.78-1.29-3.32-1.29-3.43 0-5.43 3.36-6.13 6.68-.6 2.89-.14 5.54 2.7 5.54 2.54 0 4.52-1.97 5.72-5.97z"/><path id="e" d="M173.18 6.16c2.83 0 4.42 1.55 3.74 4.79l-1.61 7.6c-.17.8.02 1.15.6 1.15.5 0 .7-.08 1-.17.32-.06.44-.06.36.25l-.15.7c-.06.26-.16.36-.45.46-.5.15-.78.19-1.55.19-.99 0-2.12-.35-1.69-2.34l1.57-7.53c.5-2.22-.27-3.5-2.41-3.5-2.79 0-4.67 2.21-5.45 5.99l-1.46 6.88c-.07.31-.15.38-.46.38h-1c-.32 0-.38-.09-.34-.38l3.84-18.02c.1-.6-.02-.83-.54-.85h-1.3c-.35-.02-.35-.17-.27-.46l.1-.52c.09-.37.15-.41.46-.43l3.24-.19c.51-.02.58.23.45.77l-1.69 7.98a5.75 5.75 0 0 1 5.01-2.75z"/><path id="f" d="M183.08 6.63l1.2-3.33c.1-.34.33-.44.85-.44.57 0 .57.1.5.44l-.73 3.33h3.55c.33 0 .43.07.37.32l-.17.83c-.06.22-.18.35-.5.35h-3.56l-1.86 8.67c-.51 2.55.33 2.9 1.61 2.9.68 0 1.36-.1 1.94-.35.33-.15.41-.06.35.25l-.16.77c-.06.24-.17.37-.5.5-.66.24-1.34.35-2.1.35-2.33 0-3.67-1-3.05-3.95l1.93-9.14h-1.79c-.35 0-.43-.06-.35-.38l.14-.68c.07-.27.19-.41.46-.41h1.87z"/><path id="g" d="M62 3.1c-4.68 0-7.92 3.44-9.04 8.72-1.07 4.98.68 7.81 5.55 7.81a13.26 13.26 0 0 0 5.89-1.32l.27-.12c.3-.13.44-.19.62-.16.39.05.48.38.4.75l-.17.9c-.04.39-.23.58-.72.82-1.45.8-3.94 1.43-6.68 1.43-6.2 0-9.16-3.76-7.74-10.64C51.68 5.02 56.18.87 62.18.87c2.3 0 3.98.6 5 1.68.9.96 1.2 2.26.93 3.57a2.2 2.2 0 0 1-2.13 1.72c-1.05 0-1.7-.75-1.47-1.84.15-.7.63-1.26 1.25-1.53-.6-.84-1.88-1.36-3.75-1.36z"/><path id="h" d="M69.99 2.34h-.03c-.57-.03-.74-.39-.6-.9l.1-.5c.11-.55.3-.72.8-.75l3.2-.19c.78-.03 1.01.43.83 1.22l-3.7 17.62c-.07.6-.02.71.25.71.24 0 .4-.02.63-.08l.29-.07c.3-.07.42-.07.58.02.25.15.27.37.19.67l-.14.71c-.1.38-.28.58-.67.72h-.02c-.56.16-.9.2-1.63.2-1.57 0-2.48-.85-2.06-2.79L71.4 2.78c.1-.44.11-.42-.15-.44z"/><path id="i" d="M83.03 6c4.75 0 6.59 3.26 5.52 8.4-.97 4.74-3.75 7.6-8.2 7.6-4.7 0-6.5-3.3-5.43-8.42 1-4.76 3.71-7.58 8.11-7.58zm-5.55 8.04c-.79 3.8.1 5.76 2.94 5.76 2.94 0 4.77-2.08 5.57-5.91.79-3.77-.14-5.74-3-5.74-2.9 0-4.71 2.07-5.51 5.9z"/><path id="j" d="M101.8 8.7c-.2-.07-.55-.09-1.42-.09-.52 0-.76-.28-.69-.78l.15-.66c.13-.5.35-.68.85-.71l3.15-.19c.77 0 1.02.43.87 1.22l-2.37 11.36c-.1.58-.04.7.25.7.27 0 .45-.03.7-.1l.21-.05c.3-.06.42-.07.58.01.27.14.3.38.22.68l-.15.71c-.09.38-.28.57-.68.72-.56.17-.89.2-1.65.2-1.15 0-1.93-.45-2.11-1.47a6.83 6.83 0 0 1-4.73 1.62c-3.32 0-4.6-1.7-3.83-5.45L92.72 9a.78.78 0 0 0 .03-.28 5.1 5.1 0 0 0-1.47-.1c-.49 0-.74-.29-.67-.78l.15-.66c.12-.5.34-.68.85-.71l3.15-.19c.76 0 1 .45.83 1.22l-1.93 9.2c-.42 1.97.1 2.9 1.94 2.9 2.58 0 4.4-1.8 5.06-4.95l1.2-5.8c.02-.14.03-.12-.06-.15z"/><path id="k" d="M117.57 1.6v.03l.01.03V1.6zm.88 17.95c.26 0 .43-.02.65-.08l.28-.07c.31-.07.42-.07.58.02.25.15.27.37.2.67l-.15.71c-.1.38-.27.58-.66.72-.58.16-.93.2-1.66.2-1.26 0-2.1-.54-2.15-1.77a6.81 6.81 0 0 1-4.8 2.03c-3.66 0-5.27-2.93-4.25-7.65 1.04-5.06 4.19-8.33 8.42-8.33 1.37 0 2.24.27 3.23.94l.85-4.18c.1-.41.1-.4-.16-.42h-1.26c-.6-.03-.77-.39-.63-.9l.1-.5c.11-.55.3-.72.8-.75l3.2-.19c.76-.03 1 .44.83 1.22l-3.7 17.62c-.07.57.01.71.28.71zm-.79-10.27c-.63-.65-1.63-1.02-2.9-1.02-2.83 0-4.95 2.62-5.73 6.38-.66 3.18.08 5.1 2.34 5.1 2.34 0 4.16-1.9 5.31-5.7z"/><path id="l" d="M18 19.5a2.5 2.5 0 1 1-4.85-.85c.26.19.56.3.88.3.8 0 1.47-.67 1.47-1.48 0-.17-.04-.32-.09-.47h.09c1.39 0 2.5 1.11 2.5 2.5zm17-3.08a5.37 5.37 0 0 1-5.25 5.5c-.58 0-3.82.15-4.81.04a2.5 2.5 0 0 1-1.6-.72c-.8-.83-.69-2.1-1.09-3.13a7.83 7.83 0 0 0-1.64-2.6 7.55 7.55 0 0 0-5.47-2.38c-4.26 0-7.7 3.6-7.7 8.04 0 .26.03.51.05.74H5.85A6.34 6.34 0 0 1 0 15.47a6.3 6.3 0 0 1 6.16-6.44l.42.03a4.74 4.74 0 0 1 4.3-2.88c.71 0 1.36.17 1.95.44A8.6 8.6 0 0 1 21.06 0c4.7 0 8.5 3.98 8.5 8.9 0 .71-.08 1.43-.23 2.1l.44-.02c2.9 0 5.23 2.4 5.23 5.44z"/></defs><use fill="#ff4e4c" xlink:href="#a"/><use fill="#ff4e4c" xlink:href="#b"/><use fill="#ff4e4c" xlink:href="#c"/><use fill="#ff4e4c" xlink:href="#d"/><use fill="#ff4e4c" xlink:href="#e"/><use fill="#ff4e4c" xlink:href="#f"/><g><use fill="#ff4e4c" xlink:href="#g"/><use fill="#ff4e4c" xlink:href="#h"/><use fill="#ff4e4c" xlink:href="#i"/><use fill="#ff4e4c" xlink:href="#j"/><use fill="#ff4e4c" xlink:href="#k"/></g><g><use fill="#ff4e4c" xlink:href="#l"/></g></svg>