<svg xmlns="http://www.w3.org/2000/svg" xmlns:xlink="http://www.w3.org/1999/xlink" width="1440" height="742"><defs><path id="a" d="M-1006.7 140.22a4 4 0 0 1 2.82-4.9l301.37-80.75a4 4 0 0 1 4.9 2.82l80.75 301.37a4 4 0 0 1-2.83 4.9l-301.37 80.75a4 4 0 0 1-4.9-2.82zm321-85.57a4 4 0 0 1 2.82-4.9L-381.5-31a4 4 0 0 1 4.9 2.83l80.75 301.37a4 4 0 0 1-2.83 4.9l-301.36 80.75a4 4 0 0 1-4.9-2.83zm401.78 219.23l-82.83-309.1 309.1-82.82 82.82 309.1zm321-85.99l-82.82-309.1 309.1-82.82 82.81 309.1zm321-86l-82.82-309.1 309.1-82.82 82.81 309.1zM596.3-289.35a4 4 0 0 1 2.82-4.9L900.5-375a4 4 0 0 1 4.9 2.83L986.14-70.8a4 4 0 0 1-2.83 4.9L681.95 14.85a4 4 0 0 1-4.9-2.83zm321.12-86a4 4 0 0 1 2.83-4.9L1221.62-461a4 4 0 0 1 4.9 2.83l80.75 301.37a4 4 0 0 1-2.83 4.9l-301.37 80.75a4 4 0 0 1-4.9-2.83z"/><path id="b" d="M-707.7 402.21a4 4 0 0 1 2.82-4.9l301.37-80.75a4 4 0 0 1 4.9 2.83l80.75 301.37a4 4 0 0 1-2.83 4.9l-301.37 80.75a4 4 0 0 1-4.9-2.83zm402.78 219.67l-82.82-309.1 309.1-82.82 82.82 309.1zm320-86l-82.83-309.1 309.1-82.82 82.82 309.1zm321-86l-82.83-309.1 309.1-82.81 82.82 309.1zm321-86l-82.83-309.1 309.1-82.81 82.82 309.1zm320-86l-82.82-309.1 309.1-82.82 82.82 309.1zm321-86l-82.82-309.1 309.1-82.82 82.82 309.1z"/><path id="c" d="M-355.95 976.88l-82.82-309.1 309.1-82.81 82.82 309.1zm321-86l-82.82-309.1 309.1-82.82 82.81 309.1zm320-86l-82.82-309.1 309.1-82.82 82.82 309.1zm321-86L523.23 409.8l309.1-82.82 82.82 309.1zm321-86L844.23 323.8l309.1-82.82 82.82 309.1zm320-86l-82.82-309.1 309.1-82.81 82.81 309.1zm239.21-391.23a4 4 0 0 1 2.83-4.9L1790.46 70a4 4 0 0 1 4.9 2.83l80.75 301.37a4 4 0 0 1-2.83 4.9l-301.37 80.75a4 4 0 0 1-4.9-2.83z"/><path id="d" d="M96.04 870.25a4 4 0 0 1 2.83-4.9l301.37-80.75a4 4 0 0 1 4.9 2.83l80.75 301.37a4 4 0 0 1-2.83 4.9l-301.37 80.75a4 4 0 0 1-4.9-2.83zm320.69-85.92a4 4 0 0 1 2.82-4.9l301.37-80.75a4 4 0 0 1 4.9 2.82l80.75 301.37a4 4 0 0 1-2.83 4.9l-301.36 80.75a4 4 0 0 1-4.9-2.83zm402.1 219.59L736 694.82 1045.1 612l82.82 309.1zm320.99-86L1057 608.82 1366.1 526l82.82 309.1zm321-86L1378 522.82 1687.1 440l82.82 309.1zm238.65-391.3a4 4 0 0 1 2.83-4.9l301.37-80.76a4 4 0 0 1 4.9 2.83l80.75 301.37a4 4 0 0 1-2.83 4.9l-301.36 80.75a4 4 0 0 1-4.9-2.83zm320.7-85.93a4 4 0 0 1 2.82-4.9l301.37-80.75a4 4 0 0 1 4.9 2.82L2410 573.23a4 4 0 0 1-2.83 4.9l-301.37 80.75a4 4 0 0 1-4.9-2.82z"/></defs><use fill="#89cfff" xlink:href="#a" opacity=".07"/><use fill="#89cfff" xlink:href="#b" opacity=".07"/><use fill="#89cfff" xlink:href="#c" opacity=".07"/><use fill="#89cfff" xlink:href="#d" opacity=".07"/></svg>