<svg xmlns="http://www.w3.org/2000/svg" xmlns:xlink="http://www.w3.org/1999/xlink" width="1176" height="266" viewBox="0 0 1176 266"><defs><path id="txj9a" d="M305 6477a29 29 0 1 1 58 0 29 29 0 0 1-58 0z"/><path id="txj9b" d="M1182 6361a10 10 0 1 1 20 0 10 10 0 0 1-20 0z"/><path id="txj9c" d="M1197 6520a10 10 0 1 1 20 0 10 10 0 0 1-20 0z"/><path id="txj9d" d="M1083 6552a24 24 0 1 1 48 0 24 24 0 0 1-48 0z"/><path id="txj9e" d="M1036 6368a20 20 0 1 1 40 0 20 20 0 0 1-40 0z"/><path id="txj9f" d="M1264 6400.5a11.5 11.5 0 1 1 23 0 11.5 11.5 0 0 1-23 0z"/><path id="txj9g" d="M200 6560a10 10 0 1 1 20 0 10 10 0 0 1-20 0z"/><path id="txj9h" d="M180 6470a18 18 0 1 1 36 0 18 18 0 0 1-36 0z"/><path id="txj9i" d="M284 6586v-48h50v48z"/><path id="txj9j" d="M220 6429v-15h16v15z"/><path id="txj9k" d="M283 6414v-21h22v21z"/><path id="txj9l" d="M212.4 6519l19.3-18 18 19.3-19.3 18z"/><path id="txj9m" d="M416.23 6412.21c-6.37 1.95-11.3 2.74-14.6 2.47-2.22-.19-3.05-.66-3.38-1.35-.8-1.65-1.2-3.43-1.55-6.38-.02-.24-.27-2.58-.36-3.3-.9-7.28-3.24-11.9-9.47-15.12-7.95-4.1-17.56-2.8-28.51 3.16l-5.37 2.92 5.83 10.73 5.37-2.92c7.73-4.21 13.31-4.97 17.06-3.03 1.96 1 2.5 2.09 2.96 5.77.08.6.32 2.87.36 3.2.48 4.2 1.16 7.16 2.68 10.3 4.56 9.41 15.83 10.33 32.53 5.24l5.84-1.78-3.54-11.69z"/><path id="txj9n" d="M389.88 6606.64c.6-6.64 1.7-11.5 3.2-14.46 1-1.99 1.74-2.58 2.5-2.63 1.83-.12 3.64.16 6.5.96l3.2.9c7.08 1.9 12.25 1.45 17.57-3.12 6.78-5.84 9.17-15.24 7.74-27.62l-.7-6.07-12.13 1.39.7 6.07c1 8.75-.38 14.2-3.58 16.96-1.67 1.43-2.87 1.54-6.46.58l-3.1-.87c-4.07-1.13-7.08-1.61-10.56-1.38-10.43.7-15.5 10.82-17.04 28.2l-.54 6.09 12.17 1.09z"/><path id="txj9o" d="M120.7 6508.61c3.65-2.94 6.64-4.74 8.87-5.44 1.5-.47 2.15-.38 2.55-.01.96.86 1.7 1.91 2.7 3.74l1.1 2.06c2.5 4.5 5.24 6.9 10.15 7.36 6.25.58 12.17-2.8 17.73-9.57l2.72-3.31-6.62-5.46-2.72 3.32c-3.93 4.78-7.37 6.74-10.32 6.47-1.54-.15-2.18-.7-3.44-2.98l-1.08-2c-1.41-2.6-2.64-4.36-4.46-6-5.44-4.93-13.02-2.56-22.56 5.15l-3.34 2.7 5.39 6.67z"/><path id="txj9p" d="M1053.33 6473.96c4.1-7.68 7.91-12.95 11.22-15.76 2.22-1.88 3.41-2.21 4.36-1.88 2.26.78 4.29 2.05 7.33 4.47.24.2 2.64 2.13 3.38 2.7 7.55 5.9 13.99 8.02 22.72 5.23 11.14-3.56 18.8-13.64 23.41-29.26l2.26-7.66-15.3-4.52-2.26 7.66c-3.25 11.03-7.7 16.89-12.96 18.56-2.74.88-4.24.39-8.06-2.6-.62-.48-2.94-2.35-3.28-2.62-4.33-3.44-7.7-5.55-12.01-7.05-12.89-4.48-24.16 5.1-34.88 25.21l-3.75 7.05 14.07 7.52z"/><path id="txj9q" d="M1124.78 6510.42c4.07-1.24 7.2-1.75 9.32-1.58 1.42.12 1.94.42 2.16.86.5 1.05.77 2.2.99 4.08.01.15.17 1.65.23 2.1.57 4.65 2.06 7.6 6.05 9.66 5.07 2.62 11.2 1.78 18.2-2.02l3.42-1.87-3.72-6.85-3.43 1.87c-4.94 2.69-8.5 3.17-10.9 1.94-1.24-.65-1.6-1.34-1.88-3.69l-.23-2.04c-.3-2.68-.74-4.58-1.71-6.59-2.9-6-10.1-6.58-20.77-3.34l-3.73 1.14 2.27 7.46z"/><path id="txj9r" d="M1247.25 6362.34c2.9-3.11 5.38-5.12 7.3-6.02 1.27-.61 1.88-.61 2.29-.34.97.66 1.76 1.51 2.89 3.04.1.12.98 1.34 1.26 1.7 2.81 3.74 5.58 5.55 10.06 5.34 5.7-.27 10.6-4.06 14.75-10.85l2.03-3.33-6.65-4.07-2.03 3.33c-2.93 4.8-5.77 7-8.46 7.13-1.41.06-2.06-.36-3.48-2.25l-1.22-1.66a19.06 19.06 0 0 0-4.78-4.84c-5.51-3.74-12.04-.65-19.65 7.49l-2.66 2.85 5.69 5.33z"/><path id="txj9s" d="M1008.6 6485.5l47.04 74.51-93.64.2z"/><path id="txj9t" d="M1217.22 6403.48l1.45 43.56-39.84-23z"/><path id="txj9u" d="M1258.4 6461.79l-6.16 43.13-35.24-29.57z"/><path id="txj9v" d="M405 6493l27 43h-54z"/><path id="txj9w" d="M269.45 6462.18l-1.23 29.66-26.22-18.36z"/><path id="txj9x" d="M1130.65 6403l-14.15-14.15 14.85-14.85 14.15 14.15z"/><path id="txj9y" d="M1167.85 6485.4l-14.85-14.85 15.55-15.55 14.85 14.85z"/></defs><g><g opacity=".5" transform="translate(-112 -6347)"><use fill="#e0e9f3" xlink:href="#txj9a"/></g><g opacity=".5" transform="translate(-112 -6347)"><use fill="#e0e9f3" xlink:href="#txj9b"/></g><g opacity=".5" transform="translate(-112 -6347)"><use fill="#e0e9f3" xlink:href="#txj9c"/></g><g opacity=".5" transform="translate(-112 -6347)"><use fill="#e0e9f3" xlink:href="#txj9d"/></g><g opacity=".5" transform="translate(-112 -6347)"><use fill="#e0e9f3" xlink:href="#txj9e"/></g><g opacity=".5" transform="translate(-112 -6347)"><use fill="#e0e9f3" xlink:href="#txj9f"/></g><g opacity=".5" transform="translate(-112 -6347)"><use fill="#e0e9f3" xlink:href="#txj9g"/></g><g opacity=".5" transform="translate(-112 -6347)"><use fill="#e0e9f3" xlink:href="#txj9h"/></g><g opacity=".5" transform="translate(-112 -6347)"><use fill="#e0e9f3" xlink:href="#txj9i"/></g><g opacity=".5" transform="translate(-112 -6347)"><use fill="#e0e9f3" xlink:href="#txj9j"/></g><g opacity=".5" transform="translate(-112 -6347)"><use fill="#e0e9f3" xlink:href="#txj9k"/></g><g opacity=".5" transform="translate(-112 -6347)"><use fill="#e0e9f3" xlink:href="#txj9l"/></g><g opacity=".5" transform="translate(-112 -6347)"><use fill="#e0e9f3" xlink:href="#txj9m"/></g><g opacity=".5" transform="translate(-112 -6347)"><use fill="#e0e9f3" xlink:href="#txj9n"/></g><g opacity=".5" transform="translate(-112 -6347)"><use fill="#e0e9f3" xlink:href="#txj9o"/></g><g opacity=".5" transform="translate(-112 -6347)"><use fill="#e0e9f3" xlink:href="#txj9p"/></g><g opacity=".5" transform="translate(-112 -6347)"><use fill="#e0e9f3" xlink:href="#txj9q"/></g><g opacity=".5" transform="translate(-112 -6347)"><use fill="#e0e9f3" xlink:href="#txj9r"/></g><g opacity=".5" transform="translate(-112 -6347)"><use fill="#e0e9f3" xlink:href="#txj9s"/></g><g opacity=".5" transform="translate(-112 -6347)"><use fill="#e0e9f3" xlink:href="#txj9t"/></g><g opacity=".5" transform="translate(-112 -6347)"><use fill="#e0e9f3" xlink:href="#txj9u"/></g><g opacity=".5" transform="translate(-112 -6347)"><use fill="#e0e9f3" xlink:href="#txj9v"/></g><g opacity=".5" transform="translate(-112 -6347)"><use fill="#e0e9f3" xlink:href="#txj9w"/></g><g opacity=".5" transform="translate(-112 -6347)"><use fill="#e0e9f3" xlink:href="#txj9x"/></g><g opacity=".5" transform="translate(-112 -6347)"><use fill="#e0e9f3" xlink:href="#txj9y"/></g></g></svg>