<svg xmlns="http://www.w3.org/2000/svg" width="376" height="273" xmlns:xlink="http://www.w3.org/1999/xlink"><title>elements/illustrations/featured/1</title><desc>Created with Sketch.</desc><defs><path d="M28 7h320c4.42 0 8 3.58 8 8v242c0 4.42-3.58 8-8 8H28c-4.42 0-8-3.58-8-8V15c0-4.42 3.58-8 8-8z"/><filter width="118.5%" height="126.4%" x="-9.2%" y="-6.6%" filterUnits="objectBoundingBox"><feOffset dy="20" in="SourceAlpha" result="shadowOffsetOuter1"/><feGaussianBlur stdDeviation="7" in="shadowOffsetOuter1" result="shadowBlurOuter1"/><feColorMatrix values="0 0 0 0 0.187428184 0 0 0 0 0.196728735 0 0 0 0 0.20575574 0 0 0 0.203804348 0" in="shadowBlurOuter1"/></filter><path id="a" d="M0 0h336v233H0z"/></defs><g fill="none"><g><g><path fill="#fff" d="M0 0h376v273H0z"/></g><g transform="translate(20 20)"><mask id="b"><use xlink:href="#a"/></mask><use fill="#E0E9F3" xlink:href="#a"/><path fill="#fff" d="M-1.96 228.63C-1.7 231-.3 233 1.7 234.1l-3.66-5.47zm-.04-3.76v-2.47L6.42 235H5.16c-.14 0-.27 0-.4-.02L-2 224.88zm0-6.17v-2.47L10.53 235H8.9L-2 218.7zm0-6.17v-2.46L14.65 235H13l-15-22.47zm0-6.16v-2.47L18.77 235h-1.65L-2 206.37zm0-6.17v-2.47L22.9 235h-1.66L-2 200.2zm0-6.16v-2.47L27 235h-1.64L-2 194.04zm0-6.17v-2.47L31.12 235h-1.65L-2 187.87zm0-6.17v-2.46L35.24 235H33.6L-2 181.7zm0-6.16v-2.47L39.36 235H37.7L-2 175.54zm0-6.17v-2.47L43.48 235h-1.65L-2 169.37zm0-6.16v-2.46L47.6 235h-1.65L-2 163.2zm0-6.16v-2.47L51.7 235h-1.64L-2 157.04zm0-6.17v-2.46L55.83 235h-1.65L-2 150.87zm0-6.16v-2.46L59.95 235H58.3L-2 144.7zm0-6.16v-2.47L64.07 235h-1.65L-2 138.54zm0-6.16v-2.47L68.2 235h-1.66L-2 132.38zm0-6.17v-2.46L72.3 235h-1.65L-2 126.2zm0-6.16v-2.46L76.42 235h-1.65L-2 120.04zm0-6.16v-2.47L80.54 235H78.9L-2 113.88zm0-6.17v-2.46L84.66 235H83L-2 107.7zm0-6.16v-2.46L88.78 235h-1.65L-2 101.54zm0-6.16V92.9L92.9 235h-1.66L-2 95.38zm0-6.17v-2.45L97 235h-1.64L-2 89.2zm0-6.15v-2.47L101.13 235h-1.65L-2 83.05zm0-6.17V74.4L105.25 235h-1.65L-2 76.88zm0-6.17v-2.45L109.37 235h-1.65L-2 70.7zm0-6.15v-2.47L113.48 235h-1.65L-2 64.55zm0-6.17V55.9L117.6 235h-1.65L-2 58.38zm0-6.16v-2.47L121.72 235h-1.65L-2 52.22zm0-6.17v-2.47L125.84 235h-1.65L-2 46.05zm0-6.17v-2.46L129.96 235h-1.65L-2 39.88zm0-6.16v-2.47L134.07 235h-1.65L-2 33.72zm0-6.17v-2.47L138.2 235h-1.66L-2 27.55zm0-6.16V18.9L142.3 235h-1.64L-2 21.4zm0-6.18v-2.47L146.43 235h-1.65L-2 15.22zm0-6.17V6.6L150.54 235h-1.64L-2 9.05zM153 235L-1.73 3.27c.14-.54.35-1.06.6-1.54L154.67 235H153zm4.13 0L.2 0C.5-.3.87-.6 1.26-.84L158.77 235h-1.64zm4.12 0L3.15-1.7c.5-.15.98-.24 1.5-.27L162.9 235h-1.65zM7.1-2h1.64l158.28 237h-1.65L7.1-2zm4.1 0h1.66l158.28 237h-1.65L11.2-2zm4.13 0h1.64l158.28 237h-1.65L15.33-2zm4.1 0h1.66l158.27 237h-1.65L19.44-2zm4.13 0h1.65l158.3 237h-1.66L23.56-2zm4.12 0h1.65L187.6 235h-1.64L27.68-2zm4.12 0h1.65l158.27 237h-1.64L31.8-2zm4.12 0h1.64l158.28 237h-1.65L35.9-2zm4.1 0h1.66l158.28 237h-1.65L40.04-2zm4.13 0h1.65l158.28 237h-1.65L44.15-2zm4.12 0h1.65L208.2 235h-1.65L48.27-2zm4.12 0h1.64L212.3 235h-1.63L52.4-2zm4.1 0h1.65l158.28 237h-1.65L56.5-2zm4.12 0h1.65l158.28 237h-1.65L60.62-2zm4.12 0h1.65l158.27 237h-1.65L64.74-2zm4.12 0h1.65l158.3 237h-1.66L68.86-2zm4.12 0h1.65L232.9 235h-1.64L72.98-2zm4.12 0h1.64l158.28 237h-1.65L77.1-2zm4.1 0h1.66l158.28 237h-1.65L81.2-2zm4.13 0h1.65l158.28 237h-1.65L85.34-2zm4.12 0h1.65l158.28 237h-1.65L89.45-2zm4.12 0h1.65L253.5 235h-1.65L93.57-2zm4.1 0h1.66L257.6 235h-1.64L97.68-2zm4.13 0h1.65l158.28 237h-1.65L101.8-2zm4.12 0h1.65l158.28 237h-1.65L105.92-2zm4.12 0h1.65l158.27 237h-1.65L110.04-2zm4.12 0h1.65L274.1 235h-1.64L114.16-2zm4.1 0h1.66L278.2 235h-1.65L118.27-2zm4.13 0h1.64l158.28 237h-1.65L122.4-2zm4.1 0h1.66l158.28 237h-1.65L126.5-2zm4.13 0h1.65l158.28 237h-1.65L130.64-2zm4.12 0h1.64l158.27 237h-1.64L134.75-2zm4.1 0h1.66l158.3 237h-1.66L138.86-2zM143-2h1.65L302.9 235h-1.64L142.98-2zm4.12 0h1.65l158.28 237h-1.65L147.1-2zm4.12 0h1.65l158.28 237h-1.65L151.22-2zm4.12 0h1.64l158.28 237h-1.64L155.34-2zm4.1 0h1.66l158.28 237h-1.65L159.45-2zm4.13 0h1.65L323.5 235h-1.65L163.57-2zm4.12 0h1.64l158.28 237h-1.65L167.7-2zm4.1 0h1.66L331.7 234.94c-.28.04-.57.06-.86.06h-.75L171.8-2zm4.13 0h1.64l157.4 235.68c-.37.27-.77.5-1.2.68L175.94-2zm4.1 0h1.66l155.58 232.97c-.22.45-.5.88-.8 1.27L180.04-2zm4.13 0h1.65L338 225.88c0 1.52-.02 2.33-.02 2.43L184.16-2zm4.12 0h1.65L338 219.7v2.48L188.28-2zm4.12 0h1.65L338 213.55v2.47L192.4-2zm4.12 0h1.64L338 207.38v2.47L196.52-2zm4.1 0h1.66L338 201.22v2.46L200.63-2zm4.13 0h1.65L338 195.05v2.47L204.75-2zm4.12 0h1.65L338 188.88v2.47L208.87-2zM213-2h1.64L338 182.72v2.46L213-2zm4.1 0h1.65L338 176.55v2.47L217.1-2zm4.12 0h1.65L338 170.38v2.47L221.22-2zm4.12 0H227l111 166.22v2.47L225.34-2zm4.12 0h1.65L338 158.05v2.47L229.46-2zm4.12 0h1.65L338 151.9v2.46L233.58-2zm4.12 0h1.64L338 145.72v2.47L237.7-2zm4.1 0h1.66L338 139.55v2.47L241.8-2zm4.13 0h1.65L338 133.4v2.46L245.93-2zm4.12 0h1.65L338 127.22v2.47L250.05-2zm4.12 0h1.65L338 121.06v2.46L254.17-2zm4.12 0h1.63L338 114.9v2.46L258.3-2zm4.1 0h1.65L338 108.72v2.47L262.4-2zm4.12 0h1.65L338 102.56v2.47L266.52-2zm4.12 0h1.65L338 96.4v2.46L270.64-2zm4.12 0h1.65L338 90.23v2.46L274.76-2zm4.12 0h1.64L338 84.06v2.47L278.88-2zm4.1 0h1.66L338 77.9v2.46L283-2zm4.13 0h1.66L338 71.73v2.47L287.1-2zm4.13 0h1.65L338 65.56v2.47L291.23-2zm4.12 0H297l41 61.4v2.46L295.35-2zm4.12 0h1.64L338 53.23v2.47L299.47-2zm4.1 0h1.66L338 47.06v2.47L303.58-2zm4.13 0h1.65L338 40.9v2.47L307.7-2zm4.12 0h1.65L338 34.73v2.47L311.82-2zm4.12 0h1.65L338 28.57v2.46L315.94-2zm4.12 0h1.64L338 22.4v2.47L320.06-2zm4.1 0h1.66L338 16.23v2.47L324.17-2zm4.13 0h1.64L338 10.07v2.47L328.3-2zm9.7 8.37l-5.45-8.16c.86.22 1.65.58 2.35 1.06l2.94 4.4c.1.5.16.98.16 1.5v1.2z" mask="url(#b)"/></g><g><path fill="#fff" d="M160.46 128H58.54C47.8 128 39 119.22 39 108.5 39 97.77 47.8 89 58.54 89h101.92C171.2 89 180 97.77 180 108.5c0 10.72-8.8 19.5-19.54 19.5"/><path fill="#FF4E4C" d="M317.46 191H215.54c-10.75 0-19.54-8.78-19.54-19.5 0-10.73 8.8-19.5 19.54-19.5h101.92c10.75 0 19.54 8.77 19.54 19.5 0 10.72-8.8 19.5-19.54 19.5"/><path fill="#FF4E4C" d="M317.46 128H215.54c-10.75 0-19.54-8.78-19.54-19.5 0-10.73 8.8-19.5 19.54-19.5h101.92C328.2 89 337 97.77 337 108.5c0 10.72-8.8 19.5-19.54 19.5"/><path fill="#FF4E4C" d="M160.46 191H58.54C47.8 191 39 182.22 39 171.5c0-10.73 8.8-19.5 19.54-19.5h101.92c10.75 0 19.54 8.77 19.54 19.5 0 10.72-8.8 19.5-19.54 19.5"/></g></g></g></svg>