<svg xmlns="http://www.w3.org/2000/svg" width="54" height="58"><title>bussines-1</title><desc>Created with Sketch.</desc><g fill="none"><g><g><path fill="#FFC9C9" d="M3 18c11.03-3.9 17.7-6.23 20-7 .6-.2.53 1.07 0 2-.4.7 7.27-9.97 9-10 3.06-.05 2.9 14.07 4.26 14.15 2.55.16 4.13.44 4.74.85 2 1.33 3.67 2.67 5 4l2 8H7L3 18z"/><path fill="#FF4E4C" fill-rule="nonzero" d="M27 41c.55 0 1 .45 1 1v11c0 .55-.45 1-1 1s-1-.45-1-1V42c0-.55.45-1 1-1zm-11.22.03c.48-.13.98.16 1.1.65 0 .02.02.04.02.07l2.08 11c.1.54-.23 1.07-.76 1.22-.48.13-.98-.16-1.1-.65 0-.02-.02-.04-.02-.07l-2.08-11c-.1-.54.23-1.07.76-1.22zm22.44 0c.53.15.86.68.76 1.23l-2.08 11c0 .02 0 .04 0 .06-.14.5-.64.78-1.12.65-.53-.15-.86-.68-.76-1.23l2.08-11c0-.02 0-.04 0-.06.14-.5.64-.78 1.12-.65zM22.46 25.57l-8.1-1.63c-.8-.2-1.1-1.17-.55-1.8l8.74-10.03-.13-.34L3.58 18.9 7.4 29h14.55c.02-1.2.2-2.34.5-3.43zm.7-1.9c2.04-4.42 6.45-7.55 11.63-7.8L32.22 4l-7.73 8.9-8.17 9.4 6.83 1.37zm25.1 17.14l-2.64 13.95c-.36 1.9-2 3.25-3.93 3.25H12.3c-1.9 0-3.56-1.36-3.92-3.25L5.73 40.8l-3.86 6.7c-.28.48-.9.64-1.37.37-.48-.28-.64-.9-.37-1.37l4.62-8C3.12 37.67 2 35.97 2 34c0-2.2 1.4-4.08 3.36-4.75L1.43 18.88c-.24-.64.08-1.35.72-1.6L22.4 9.64c.65-.25 1.36.07 1.6.7l.03.06 7.87-9.07c.6-.68 1.72-.4 1.9.5l3.04 14.1c1.63.16 3.2.6 4.65 1.33 4.52 2.25 7.45 6.84 7.45 11.96 0 .05 0 .1 0 .15C50.75 30.1 52 31.9 52 34c0 1.98-1.12 3.68-2.75 4.5l4.62 8c.27.48.1 1.1-.37 1.37-.48.27-1.1.1-1.37-.37l-3.86-6.7zM46.1 37l-1.45-2.5c-.27-.48-.1-1.1.37-1.37.48-.27 1.1-.1 1.37.37l1.87 3.26C49.28 36.3 50 35.24 50 34c0-1.67-1.3-3-2.92-3H6.92C5.3 31 4 32.33 4 34c0 1.24.72 2.3 1.76 2.76l1.87-3.26c.28-.48.9-.64 1.37-.37.48.28.64.9.37 1.37L7.92 37h38.16zm-21.3-12.08c0 .03 0 .06 0 .1-.03.14-.1.27-.17.38-.4 1.13-.63 2.34-.65 3.6h23c-.08-4.27-2.56-8.08-6.36-9.97-1.6-.78-3.34-1.2-5.15-1.2-4.82 0-8.95 2.94-10.66 7.1zM10.36 54.37c.18.95 1 1.63 1.96 1.63h29.4c.95 0 1.77-.68 1.95-1.63L46.58 39H7.42l2.93 15.37z"/></g></g></g></svg>