<svg xmlns="http://www.w3.org/2000/svg" xmlns:xlink="http://www.w3.org/1999/xlink" width="35" height="22"><defs><path id="a" d="M18 19.5a2.5 2.5 0 1 1-4.85-.85c.26.19.56.3.88.3.8 0 1.47-.67 1.47-1.48 0-.17-.04-.32-.09-.47h.09c1.39 0 2.5 1.11 2.5 2.5zm17-3.08a5.37 5.37 0 0 1-5.25 5.5c-.58 0-3.82.15-4.81.04a2.5 2.5 0 0 1-1.6-.72c-.8-.83-.69-2.1-1.09-3.13a7.83 7.83 0 0 0-1.64-2.6 7.55 7.55 0 0 0-5.47-2.38c-4.26 0-7.7 3.6-7.7 8.04 0 .26.03.51.05.74H5.85A6.34 6.34 0 0 1 0 15.47a6.3 6.3 0 0 1 6.16-6.44l.42.03a4.74 4.74 0 0 1 4.3-2.88c.71 0 1.36.17 1.95.44A8.6 8.6 0 0 1 21.06 0c4.7 0 8.5 3.98 8.5 8.9 0 .71-.08 1.43-.23 2.1l.44-.02c2.9 0 5.23 2.4 5.23 5.44z"/></defs><use fill="#ff4e4c" xlink:href="#a"/></svg>