<svg xmlns="http://www.w3.org/2000/svg" width="68" height="45" xmlns:xlink="http://www.w3.org/1999/xlink"><defs><path id="a" d="M2 37V1h48v36zm4-19h12V6H6zm28 12h12V18H34z"/><path id="b" d="M20 13h12v12H20z"/><path id="c" d="M49 36.06c.56 0 1-.44 1-.97V2.9a.98.98 0 0 0-1-.97H3c-.56 0-1 .44-1 .97v32.2c0 .53.44.97 1 .97zM49 38H32v4h5a1 1 0 0 1 0 2H15a1 1 0 0 1 0-2h5v-4H3c-1.66 0-3-1.3-3-2.9V2.9C0 1.3 1.34 0 3 0h46c1.66 0 3 1.3 3 2.9v32.2c0 1.6-1.34 2.9-3 2.9zm-27 0v4h8v-4z"/><path id="d" d="M47 44V12h20v32z"/><path id="e" d="M49 43a1 1 0 0 1-1-1V14a1 1 0 0 1 1-1h16a1 1 0 0 1 1 1v28a1 1 0 0 1-1 1zm19-1V14a3 3 0 0 0-3-3H49a3 3 0 0 0-3 3v28a3 3 0 0 0 3 3h16a3 3 0 0 0 3-3z"/><path id="f" d="M50 15h14v20H50z"/><path id="g" d="M55 39a2 2 0 1 1 4 0 2 2 0 0 1-4 0z"/></defs><use fill="#ffc9c9" xlink:href="#a"/><use fill="#ff4e4c" xlink:href="#b"/><use fill="#ff4e4c" xlink:href="#c"/><use fill="#fff" xlink:href="#d"/><use fill="#ff4e4c" xlink:href="#e"/><use fill="#ffc9c9" xlink:href="#f"/><use fill="#ff4e4c" xlink:href="#g"/></svg>