<svg width="376" height="273" xmlns="http://www.w3.org/2000/svg" xmlns:xlink="http://www.w3.org/1999/xlink"><defs><path d="M18 10h340a8 8 0 0 1 8 8v242a8 8 0 0 1-8 8H18a8 8 0 0 1-8-8V18a8 8 0 0 1 8-8z" id="b"/><filter x="-18.3%" y="-21.3%" width="136.5%" height="150.4%" filterUnits="objectBoundingBox" id="a"><feOffset dy="10" in="SourceAlpha" result="shadowOffsetOuter1"/><feGaussianBlur stdDeviation="20" in="shadowOffsetOuter1" result="shadowBlurOuter1"/><feColorMatrix values="0 0 0 0 0.0934295287 0 0 0 0 0.145225729 0 0 0 0 0.195498512 0 0 0 0.101222826 0" in="shadowBlurOuter1"/></filter><path id="c" d="M.004 0H336v233H.004z"/><path d="M7.072.672C3.167.672 0 3.824 0 7.71v219.254C0 230.85 3.167 234 7.072 234H328.93c3.905 0 7.071-3.15 7.071-7.036V7.71c0-3.886-3.166-7.038-7.071-7.038H7.072z" id="e"/></defs><g fill="none" fill-rule="evenodd"><use fill="#000" filter="url(#a)" xlink:href="#b"/><use fill="#FFF" xlink:href="#b"/><path fill="#FFF" d="M0 0h376v273H0z"/><g transform="translate(20 20)"><mask id="d" fill="#fff"><use xlink:href="#c"/></mask><use fill="#E0E9F3" xlink:href="#c"/><path d="M-1.956 228.631a7.148 7.148 0 0 0 3.661 5.482l-3.66-5.482zM-2 224.867v-2.468l8.416 12.6h-1.26c-.136 0-.268-.012-.402-.02L-2 224.868zm0-6.167v-2.468L10.534 235H8.885L-2 218.7zm0-6.165v-2.468L14.651 235h-1.648L-2 212.535zm0-6.167V203.9L18.769 235h-1.648L-2 206.368zm0-6.166v-2.468L22.887 235H21.24L-2 200.202zm0-6.166v-2.467l29.005 43.43h-1.648L-2 194.036zm0-6.166v-2.468L31.124 235h-1.65L-2 187.87zm0-6.166v-2.468L35.241 235h-1.648L-2 181.704zm0-6.166v-2.468L39.359 235h-1.648L-2 175.538zm0-6.166v-2.468L43.477 235H41.83L-2 169.372zm0-6.166v-2.468L47.595 235h-1.647L-2 163.206zm0-6.166v-2.468L51.714 235h-1.65L-2 157.04zm0-6.166v-2.468L55.831 235h-1.649L-2 150.874zm0-6.166v-2.468L59.95 235H58.3L-2 144.707zm0-6.166v-2.468l66.067 98.925H62.42L-2 138.542zm0-6.166v-2.468L68.185 235h-1.648L-2 132.376zm0-6.167v-2.468L72.303 235h-1.648L-2 126.21zm0-6.165v-2.468L76.421 235h-1.648L-2 120.044zm0-6.167v-2.467L80.54 235h-1.65L-2 113.877zm0-6.165v-2.468L84.657 235h-1.648L-2 107.712zm0-6.167v-2.468L88.775 235h-1.648L-2 101.545zm0-6.166v-2.468L92.893 235h-1.648L-2 95.38zm0-6.165v-2.468l99.01 148.253h-1.647L-2 89.214zm0-6.167v-2.468l103.13 154.42h-1.65L-2 83.047zm0-6.166v-2.468L105.248 235h-1.65L-2 76.88zm0-6.166v-2.468L109.365 235h-1.649L-2 70.715zm0-6.166V62.08L113.483 235h-1.648L-2 64.549zm0-6.166v-2.468L117.6 235h-1.647L-2 58.383zm0-6.166V49.75L121.72 235h-1.649L-2 52.218zm0-6.167v-2.468L125.837 235h-1.648L-2 46.05zm0-6.165v-2.468L129.955 235h-1.648L-2 39.885zm0-6.167v-2.467l136.073 203.748h-1.648L-2 33.72zm0-6.165v-2.468l140.19 209.914h-1.647L-2 27.553zm0-6.166v-2.468l144.31 216.08h-1.649L-2 21.388zm0-6.167v-2.468L146.427 235h-1.648L-2 15.22zm0-6.165V6.587L150.545 235h-1.649L-2 9.055zm155.015 225.944L-1.743 3.273c.148-.543.35-1.064.615-1.547l155.791 233.273h-1.648zm4.118 0L.193.006c.33-.318.69-.604 1.077-.854L158.78 235h-1.648zm4.118 0L3.162-1.712a7.172 7.172 0 0 1 1.475-.261L162.899 235h-1.648zM7.09-2h1.648l158.279 237h-1.648L7.089-2zm4.117 0h1.648l158.28 237h-1.649L11.207-2zm4.118 0h1.648l158.28 237h-1.649L15.325-2zm4.118 0h1.648l158.28 237h-1.649L19.443-2zm4.118 0h1.649l158.28 237h-1.65L23.562-2zm4.118 0h1.648l158.28 237h-1.649L27.68-2zm4.118 0h1.648l158.28 237h-1.649L31.797-2zm4.118 0h1.648l158.28 237h-1.648L35.915-2zm4.118 0h1.648l158.28 237h-1.648L40.033-2zm4.118 0h1.648l158.28 237h-1.648L44.15-2zm4.118 0h1.649l158.28 237h-1.65L48.27-2zm4.118 0h1.648l158.28 237h-1.648L52.387-2zm4.118 0h1.648l158.28 237h-1.649L56.505-2zm4.118 0h1.648l158.28 237h-1.649L60.623-2zm4.118 0h1.648l158.28 237h-1.649L64.741-2zm4.118 0h1.648l158.28 237h-1.648L68.859-2zm4.118 0h1.648l158.28 237h-1.65L72.978-2zm4.118 0h1.648l158.28 237h-1.649L77.095-2zm4.118 0h1.648l158.28 237h-1.648L81.213-2zm4.118 0h1.648l158.28 237h-1.649L85.331-2zm4.118 0h1.648l158.28 237h-1.648L89.449-2zm4.118 0h1.648l158.28 237h-1.649L93.567-2zm4.118 0h1.648l158.28 237h-1.649L97.684-2zm4.118 0h1.648l158.28 237h-1.649L101.802-2zm4.118 0h1.648l158.28 237H264.2L105.92-2zm4.118 0h1.648l158.28 237h-1.649L110.038-2zm4.118 0h1.648l158.28 237h-1.649L114.156-2zm4.118 0h1.648l158.28 237h-1.648L118.275-2zm4.118 0h1.648l158.28 237h-1.648L122.393-2zm4.118 0h1.648l158.28 237h-1.65L126.512-2zm4.118 0h1.648l158.28 237h-1.649L130.63-2zm4.118 0h1.648l158.28 237h-1.65L134.748-2zm4.118 0h1.648l158.28 237h-1.649L138.864-2zm4.118 0h1.648l158.28 237h-1.649L142.983-2zm4.118 0h1.648l158.28 237h-1.649L147.101-2zm4.118 0h1.648l158.28 237h-1.65L151.22-2zm4.118 0h1.648l158.279 237h-1.648L155.336-2zm4.118 0h1.648l158.28 237h-1.649L159.454-2zm4.118 0h1.648l158.28 237h-1.649L163.572-2zm4.118 0h1.648l158.28 237h-1.65L167.692-2zm4.118 0h1.648l158.242 236.944a7.348 7.348 0 0 1-.856.056h-.755L171.808-2zm4.117 0h1.649l157.4 235.682a7.161 7.161 0 0 1-1.193.682L175.926-2zm4.118 0h1.649l155.584 232.965a7.15 7.15 0 0 1-.794 1.277L180.044-2zm4.119 0h1.648L338 225.879c-.01 1.52-.017 2.331-.024 2.433L184.163-2zm4.118 0h1.648l148.07 221.713v2.469L188.281-2zm4.117 0h1.649L338 213.547v2.469L192.398-2zm4.119 0h1.648L338 207.382v2.468L196.517-2zm4.118 0h1.648l135.716 203.215v2.468L200.635-2zm4.118 0h1.648L338 195.05v2.467L204.753-2zm4.118 0h1.648l127.48 190.883v2.468L208.872-2zm4.118 0h1.648l123.362 184.717v2.468L212.99-2zm4.118 0h1.648L338 176.551v2.468L217.107-2zm4.118 0h1.648L338 170.385v2.469L221.225-2zm4.118 0h1.648L338 164.219v2.467L225.343-2zm4.117 0h1.649l106.89 160.053v2.468L229.46-2zm4.118 0h1.649L338 151.888v2.467L233.578-2zm4.119 0h1.648L338 145.72v2.468L237.697-2zm4.118 0h1.648l94.536 141.554v2.468L241.815-2zm4.117 0h1.649L338 133.389v2.468L245.932-2zm4.119 0h1.648l86.3 129.222v2.468L250.052-2zm4.118 0h1.648l82.182 123.057v2.468L254.17-2zm4.117 0h1.648L338 114.89v2.469L258.286-2zm4.119 0h1.648L338 108.724v2.469L262.405-2zm4.117 0h1.649l69.828 104.558v2.468L266.522-2zm4.119 0h1.648l65.71 98.393v2.468L270.642-2zm4.117 0h1.648L338 90.227v2.467L274.758-2zm4.118 0h1.649l57.474 86.06v2.468L278.876-2zm4.118 0h1.649L338 77.894v2.468L282.994-2zm4.118 0h1.649L338 71.728v2.468L287.112-2zm4.118 0h1.649l45.12 67.562v2.468L291.23-2zm4.118 0h1.649L338 59.395v2.469L295.348-2zm4.118 0h1.648L338 53.23v2.468L299.466-2zm4.118 0h1.648L338 47.063v2.469L303.584-2zm4.118 0h1.648L338 40.897v2.468L307.702-2zm4.118 0h1.648L338 34.732V37.2L311.82-2zm4.118 0h1.648L338 28.565v2.468L315.938-2zm4.118 0h1.649l16.294 24.4v2.467L320.056-2zm4.118 0h1.648L338 16.233v2.468L324.174-2zm4.118 0h1.648L338 10.068v2.468L328.292-2zM338 6.369l-5.446-8.155c.854.21 1.648.566 2.35 1.05l2.942 4.405c.1.477.154.972.154 1.478V6.37z" fill="#FFF" mask="url(#d)"/></g><g transform="translate(20 19)"><mask id="f" fill="#fff"><use xlink:href="#e"/></mask><path fill="#FF4E4C" mask="url(#f)" d="M272 155h90V65h-90z"/><path fill="#FFF" mask="url(#f)" d="M247 169H131l58-97z"/><path d="M-50 114c2.664-1.24 18.556-17.168 54 0 26.939 12.927 46.287 2.161 53-4" stroke="#FF4E4C" stroke-width="7" mask="url(#f)"/><path fill="#FF4E4C" fill-rule="nonzero" mask="url(#f)" d="M187 95v45h4V95z"/><path d="M193 153.571c0 1.638-1.79 3.429-4.571 3.429-1.638 0-3.429-1.79-3.429-3.429 0-2.78 1.79-4.571 3.429-4.571 2.78 0 4.571 1.79 4.571 4.571M131 112c0 15.136-11.864 27-26 27-15.136 0-27-11.864-27-27 0-14.136 11.864-26 27-26 14.136 0 26 11.864 26 26z" fill="#FF4E4C" mask="url(#f)"/></g></g></svg>