<?xml version="1.0" encoding="UTF-8"?>
<svg width="58px" height="41px" viewBox="0 0 58 41" version="1.1" xmlns="http://www.w3.org/2000/svg" xmlns:xlink="http://www.w3.org/1999/xlink">
    <!-- Generator: Sketch 47.1 (45422) - http://www.bohemiancoding.com/sketch -->
    <title>icons/business/3</title>
    <desc>Created with Sketch.</desc>
    <defs></defs>
    <g id="Symbols" stroke="none" stroke-width="1" fill="none" fill-rule="evenodd">
        <g id="icons/business/3">
            <g>
                <rect id="Rectangle-9" fill="#FFC9C9" x="23" y="4" width="12" height="12"></rect>
                <path d="M35.2147194,4.8093 C35.2147194,4.8093 39.2517194,-3.2477 44.1577194,4.0773 C47.0377194,8.3753 53.1847194,20.4423 53.1847194,20.4423 C53.1847194,20.4423 49.0357194,18.3593 47.5067194,18.3593 C45.9777194,18.3593 38.8347194,18.4643 35.9317194,24.8413 C34.1717194,28.7063 34.5617194,25.3273 34.7597194,24.8413 C34.9577194,24.3563 35.2147194,4.8093 35.2147194,4.8093 Z" id="Fill-15" fill="#FFC9C9"></path>
                <path d="M22.3907,4.8093 C22.3907,4.8093 18.3537,-3.2477 13.4477,4.0773 C10.5677,8.3753 4.4207,20.4423 4.4207,20.4423 C4.4207,20.4423 8.5697,18.3593 10.0987,18.3593 C11.6277,18.3593 18.7707,18.4643 21.6737,24.8413 C23.4337,28.7063 23.0437,25.3273 22.8457,24.8413 C22.6477,24.3563 22.3907,4.8093 22.3907,4.8093" id="Fill-15" fill="#FFC9C9"></path>
                <path d="M3.00170087,21.0606002 C2.99083329,20.8849104 3.02622526,20.7041106 3.11368462,20.5367179 L12.1152725,3.30855981 C13.2236752,1.28520774 15.3479611,0 17.6973,0 C21.2112682,0 24.0000034,2.48357918 24,5.9998 L23.9999966,28.9908295 C23.9999989,28.993886 24,28.9969429 24,29 C24,35.627417 18.627417,41 12,41 C5.372583,41 0,35.627417 0,29 C0,25.9557366 1.13359782,23.1762391 3.00170087,21.0606002 Z M6.53041579,18.3161584 C8.17060484,17.4747772 10.0298573,17 12,17 C16.1739437,17 19.8501608,19.1310209 22.0000034,22.3644149 L22.0000034,5.9971805 C22.0000034,3.58809101 20.1066411,2 17.6973,2 C16.0857745,2 14.6300855,2.88070199 13.8786154,4.25208212 L6.53041579,18.3161584 Z M12,39 C17.5228475,39 22,34.5228475 22,29 C22,23.4771525 17.5228475,19 12,19 C6.4771525,19 2,23.4771525 2,29 C2,34.5228475 6.4771525,39 12,39 Z M13.8494404,28.9984851 C13.8490819,28.9993572 13.84838,29.0002104 13.8473621,29.0010316 L13.8494404,28.9984851 Z M12.2483264,27.8029163 C12.90927,26.8355749 14.294831,26.7227303 15.0820647,27.5489512 L17.7750647,30.2039512 C18.168354,30.5916909 18.1728528,31.2248399 17.7851131,31.6181291 C17.3973735,32.0114183 16.7642245,32.0159171 16.3709353,31.6281775 L13.7847041,29.0778033 L11.9478826,31.3283685 C11.3050158,32.2664292 9.97226728,32.4054188 9.14705124,31.6131853 L6.30305124,28.8491853 C5.90699629,28.4642711 5.8979649,27.8311706 6.28287907,27.4351156 C6.66779324,27.0390607 7.3008938,27.0300293 7.69694876,27.4149434 L10.4115664,30.0532256 L12.2483264,27.8029163 Z M46,39 C51.5228475,39 56,34.5228475 56,29 C56,23.4771525 51.5228475,19 46,19 C40.4771525,19 36,23.4771525 36,29 C36,34.5228475 40.4771525,39 46,39 Z M46,41 C39.372583,41 34,35.627417 34,29 C34,22.372583 39.372583,17 46,17 C52.627417,17 58,22.372583 58,29 C58,35.627417 52.627417,41 46,41 Z M53.1136846,21.4628821 L44.1213846,4.25208212 C43.3699145,2.88070199 41.9142255,2 40.3027,2 C37.8933589,2 35.9999966,3.58809101 35.9999966,5.9971805 L35.9999966,28.9971805 C36.0014433,29.5494634 35.5549024,29.9983499 35.0026195,29.9997966 C34.4503366,30.0012433 34.0014501,29.5547024 34.0000034,29.0024195 L34,5.9998 C33.9999966,2.48357918 36.7887318,0 40.3027,0 C42.6520389,0 44.7763248,1.28520774 45.8847275,3.30855981 L54.8863154,20.5367179 C55.1420686,21.0262163 54.9525806,21.6303622 54.4630821,21.8861154 C53.9735837,22.1418686 53.3694378,21.9523806 53.1136846,21.4628821 Z M47.849441,29.0021589 L47.8473627,29.0047054 C47.8483806,29.0038842 47.8490825,29.003031 47.849441,29.0021589 Z M46.248327,27.8065901 C46.9092706,26.8392487 48.2948317,26.7264041 49.0820654,27.552625 L51.7750654,30.207625 C52.1683546,30.5953647 52.1728534,31.2285136 51.7851138,31.6218029 C51.3973741,32.0150921 50.7642251,32.0195909 50.3709359,31.6318512 L47.7847047,29.081477 L45.9478832,31.3320423 C45.3050164,32.2701029 43.9722679,32.4090926 43.1470519,31.6168591 L40.3030519,28.8528591 C39.9069969,28.4679449 39.8979655,27.8348443 40.2828797,27.4387894 C40.6677939,27.0427344 41.3008944,27.033703 41.6969494,27.4186172 L44.411567,30.0568994 L46.248327,27.8065901 Z M24,22 L34,22 L34,24 L24,24 L24,22 Z M23,4 C25,2.66666667 27,2 29,2 C31,2 33,2.66666667 35,4 L35,6 C33,4.66666667 31,4 29,4 C27,4 25,4.66666667 23,6 L23,4 Z M23,16 C25,14.6666667 27,14 29,14 C31,14 33,14.6666667 35,16 L35,18 C33,16.6666667 31,16 29,16 C27,16 25,16.6666667 23,18 L23,16 Z" id="Stroke-7" fill="#FF4E4C" fill-rule="nonzero"></path>
            </g>
        </g>
    </g>
</svg>